<svg width="64" height="64" viewBox="0 0 64 64" fill="none" xmlns="http://www.w3.org/2000/svg">
<path d="M32.2159 57.9732C46.7694 57.9732 58.5673 46.1753 58.5673 31.6219C58.5673 17.0684 46.7694 5.27051 32.2159 5.27051C17.6625 5.27051 5.86456 17.0684 5.86456 31.6219C5.86456 46.1753 17.6625 57.9732 32.2159 57.9732Z" fill="#767DFF"/>
<path fill-rule="evenodd" clip-rule="evenodd" d="M28.5432 15.9757H35.8886C36.1431 15.9756 36.3931 16.0433 36.6128 16.1718C36.8325 16.3003 37.014 16.4851 37.1387 16.707L48.5126 36.9959C48.6323 37.2097 48.6952 37.4507 48.6952 37.6958C48.6952 37.9409 48.6323 38.1819 48.5126 38.3958L44.8728 44.8881C44.7485 45.1101 44.5673 45.295 44.3479 45.4238C44.1285 45.5526 43.8788 45.6207 43.6244 45.621H20.8074C20.5527 45.621 20.3026 45.5531 20.0829 45.4242C19.8632 45.2954 19.6818 45.1104 19.5574 44.8881L15.9192 38.3958C15.7995 38.1819 15.7366 37.9409 15.7366 37.6958C15.7366 37.4507 15.7995 37.2097 15.9192 36.9959L27.2931 16.707C27.4178 16.4851 27.5993 16.3003 27.819 16.1718C28.0387 16.0433 28.2886 15.9756 28.5432 15.9757ZM32.2159 24.0475L24.5526 37.6958H39.8792L32.2159 24.0475Z" fill="white"/>
</svg>
