<svg width="65" height="64" viewBox="0 0 65 64" fill="none" xmlns="http://www.w3.org/2000/svg">
<path d="M54.2655 17.2786C55.2513 17.8479 55.859 18.9 55.859 20.0389V43.2049C55.859 44.3436 55.2515 45.3957 54.2658 45.9651L34.215 57.5461C33.229 58.1156 32.0142 58.1156 31.0282 57.5461L10.9774 45.9651C9.99169 45.3957 9.38416 44.3436 9.38416 43.2049V20.0388C9.38416 18.9001 9.99169 17.848 10.9774 17.2787L31.0229 5.69762C32.0089 5.12814 33.2237 5.12814 34.2097 5.69761L54.2655 17.2786ZM53.918 17.8809L33.8621 6.29983C33.0912 5.85456 32.1414 5.85456 31.3705 6.29981L11.325 17.8808C10.5543 18.326 10.0792 19.1486 10.0792 20.0389V43.2048C10.0792 44.0951 10.5543 44.9177 11.325 45.3629L31.3758 56.9439C32.1467 57.3892 33.0965 57.3892 33.8674 56.9439L53.9182 45.3629C54.6889 44.9177 55.1639 44.0951 55.1639 43.2049V20.039C55.1639 19.1486 54.6888 18.326 53.918 17.8809Z" fill="url(#paint0_linear_120_159976)"/>
<path d="M52.0082 18.803L34.0237 8.41654C33.1551 7.91487 32.085 7.91487 31.2164 8.41654L13.2332 18.803C12.3664 19.304 11.8319 20.2287 11.8303 21.2302V42.0093C11.8303 43.0123 12.3651 43.939 13.2332 44.4408L31.2177 54.8272C32.0863 55.3289 33.1564 55.3289 34.025 54.8272L52.0098 44.4397C52.8778 43.938 53.4126 43.0112 53.4126 42.0083V21.2302C53.4107 20.2284 52.8755 19.3035 52.0082 18.803Z" fill="url(#paint1_linear_120_159976)"/>
<path d="M19.6414 19.9478C20.0739 19.518 20.5049 19.0878 20.9345 18.6571C21.3669 19.0883 21.7984 19.5199 22.2289 19.952C21.7993 20.3832 21.3687 20.814 20.9371 21.2443C20.5049 20.8131 20.073 20.3809 19.6414 19.9478ZM23.5359 19.9494C23.9656 19.5182 24.3961 19.0874 24.8277 18.6571C25.2587 19.0869 25.6888 19.5171 26.1179 19.9478C25.6882 20.379 25.2577 20.8098 24.8261 21.2401C24.3953 20.8103 23.9652 20.3801 23.5359 19.9494ZM39.1264 19.9452C39.5561 19.514 39.9861 19.0837 40.4166 18.6545C40.849 19.0857 41.2805 19.5173 41.711 19.9494C41.2814 20.3806 40.8513 20.8113 40.4208 21.2416C39.9898 20.8089 39.5583 20.3767 39.1264 19.9452ZM43.0125 19.9533C43.4435 19.5207 43.876 19.0881 44.3098 18.6555C44.7408 19.0853 45.1714 19.5161 45.6016 19.9478L44.3043 21.2456C43.8732 20.8149 43.4427 20.3842 43.0125 19.9533ZM21.5895 21.8953C22.0205 21.4655 22.4511 21.0353 22.8812 20.6046C23.3122 21.0344 23.7423 21.4646 24.1714 21.8953C23.7418 22.3265 23.3112 22.7573 22.8796 23.1876C22.4486 22.7576 22.0186 22.3269 21.5895 21.8953ZM25.4951 21.8979C25.9233 21.471 26.3496 21.0428 26.7742 20.6133C27.1996 21.0431 27.6259 21.4715 28.0533 21.8985C27.6264 22.324 27.2001 22.7501 26.7742 23.1767C26.3474 22.7508 25.921 22.3246 25.4951 21.8979ZM37.1924 21.8895C37.6193 21.461 38.0474 21.0341 38.473 20.6028C38.8998 21.0322 39.3276 21.4616 39.7563 21.8911C39.3276 22.3181 38.8998 22.7457 38.473 23.1741C38.049 22.7435 37.6193 22.318 37.1924 21.8895ZM41.0729 21.8924C41.5025 21.4612 41.9326 21.031 42.3631 20.6017C42.7941 21.0315 43.2247 21.4623 43.6548 21.894C43.2252 22.3252 42.7952 22.7559 42.3647 23.1863C41.935 22.7533 41.5025 22.3235 41.0729 21.8924ZM19.6414 23.8439L20.9371 22.5476C21.3682 22.9788 21.7982 23.4096 22.2273 23.8399C21.7963 24.2725 21.3648 24.7041 20.9329 25.1348C20.5021 24.7048 20.0716 24.2745 19.6414 23.8439ZM23.5346 23.8425C23.9656 23.4128 24.3967 22.9825 24.8277 22.5519C25.2587 22.9817 25.6888 23.4119 26.1179 23.8425C25.6882 24.2737 25.2577 24.7045 24.8261 25.1348C24.3953 24.7048 23.9648 24.2741 23.5346 23.8425ZM27.4334 23.8354C27.8588 23.4084 28.2847 22.9819 28.7111 22.5558C29.1408 22.9856 29.5698 23.4154 29.9984 23.8452C29.573 24.2708 29.1471 24.6964 28.7206 25.1221C28.291 24.6938 27.8619 24.2649 27.4334 23.8354ZM35.2501 23.8354C35.6755 23.4084 36.101 22.9819 36.5266 22.5558C36.9548 22.9828 37.3821 23.4103 37.8086 23.8383C37.3803 24.2626 36.9562 24.691 36.5279 25.1153C36.1049 24.6868 35.6755 24.2626 35.2501 23.8354ZM39.1264 23.8396C39.5575 23.407 39.9889 22.9754 40.4208 22.5447C40.8519 22.9745 41.2824 23.4053 41.7126 23.837C41.2816 24.2696 40.8501 24.7017 40.4182 25.1332C39.9886 24.7008 39.5561 24.271 39.1264 23.8396ZM43.0189 23.8396C43.4485 23.4084 43.8785 22.9782 44.309 22.549C44.74 22.9787 45.1706 23.4095 45.6008 23.8412C45.1712 24.2724 44.7411 24.7032 44.3106 25.1335C43.8815 24.7008 43.4493 24.271 43.0189 23.8396ZM31.3237 23.9719L32.6001 22.695C33.0487 23.1107 33.4886 23.535 33.9169 23.9719C33.4873 24.4073 33.0484 24.8324 32.6001 25.2473C32.1745 24.8217 31.7491 24.3966 31.3237 23.9719ZM21.5937 25.7911C22.0233 25.3641 22.4534 24.9366 22.8839 24.5086C23.3093 24.937 23.7352 25.364 24.1616 25.7898C23.7348 26.2182 23.3079 26.6461 22.881 27.0736C22.4515 26.6466 22.0224 26.2191 21.5937 25.7911ZM29.3812 25.7829C29.8066 25.3558 30.2319 24.9318 30.6576 24.5047C31.083 24.9302 31.508 25.3559 31.9325 25.7816C31.5084 26.2072 31.0817 26.6327 30.6576 27.0586C30.2322 26.6337 29.8067 26.2085 29.3812 25.7829ZM33.305 25.7829C33.7272 25.3545 34.1558 24.9331 34.5785 24.5047C35.015 24.9234 35.4322 25.3587 35.8631 25.7829C35.4348 26.2072 35.0095 26.637 34.5812 27.0625C34.1571 26.6341 33.7298 26.2101 33.305 25.7829ZM41.0924 25.7842C41.5165 25.3558 41.9419 24.9302 42.366 24.5017C42.797 24.9287 43.2266 25.3562 43.6548 25.7842C43.2238 26.2112 42.7938 26.6387 42.3647 27.0667C41.9419 26.637 41.5147 26.2127 41.0924 25.7842ZM23.5402 27.7302C23.9656 27.3032 24.3924 26.8767 24.8208 26.4506C25.2476 26.8804 25.6758 27.3097 26.1055 27.7386C25.6801 28.1656 25.2541 28.5917 24.8277 29.0169C24.3981 28.5889 23.9689 28.16 23.5402 27.7302ZM31.3263 27.7273C31.7503 27.3017 32.1748 26.877 32.5999 26.4532C33.0476 26.8677 33.4865 27.2928 33.9167 27.7286C33.4885 28.1654 33.0501 28.5901 32.6014 29.0026C32.1759 28.5772 31.7508 28.1521 31.3263 27.7273ZM39.146 27.7302C39.57 27.3046 39.9945 26.8804 40.4195 26.4574C40.8449 26.883 41.2708 27.3072 41.6973 27.7302C41.2703 28.1526 40.8449 28.5787 40.4195 29.0016C39.9968 28.5757 39.57 28.1544 39.146 27.7302ZM25.4882 29.6774C25.9136 29.2504 26.3395 28.8248 26.766 28.4005C27.19 28.8246 27.614 29.2493 28.0382 29.6745C27.6142 30.1001 27.1893 30.5262 26.7633 30.9528C26.3392 30.5272 25.9141 30.1021 25.4882 29.6774ZM37.1953 29.6774C37.6207 29.2518 38.0466 28.8262 38.473 28.4005C38.8984 28.8246 39.323 29.2503 39.7466 29.6774C39.3226 30.103 38.8981 30.5286 38.473 30.9544C38.049 30.5272 37.6207 30.1032 37.1953 29.6774ZM23.5436 31.622C23.969 31.195 24.3949 30.7694 24.8214 30.3451C25.2453 30.7706 25.6699 31.1963 26.0949 31.622C25.6709 32.0476 25.2464 32.4732 24.8214 32.899C24.394 32.4732 23.9681 32.0476 23.5436 31.622ZM27.4334 31.622C27.8588 31.1964 28.2842 30.7713 28.7098 30.3466C29.1338 30.7722 29.5581 31.1973 29.9826 31.622C29.5603 32.0476 29.1363 32.4727 28.7103 32.8974C28.2844 32.4718 27.8588 32.0467 27.4334 31.622ZM35.2485 31.622C35.6739 31.1935 36.1036 30.7693 36.5292 30.3408C36.9562 30.7664 37.3816 31.1962 37.8083 31.622C37.3815 32.0476 36.9551 32.4746 36.5292 32.9032C36.1049 32.4747 35.6742 32.0505 35.2485 31.622ZM39.0304 31.622C39.4669 31.2118 39.8564 30.7458 40.3248 30.3701C40.728 30.8028 41.1756 31.1935 41.5846 31.622C41.1758 32.0476 40.7351 32.4404 40.329 32.8697C39.8521 32.5067 39.4713 32.0296 39.0304 31.622ZM25.4882 33.5666L26.7631 32.2912C27.1885 32.7184 27.6139 33.1424 28.0379 33.5695C27.614 33.9951 27.1899 34.4198 26.7657 34.8436C26.3403 34.4178 25.9145 33.9922 25.4882 33.5666ZM37.1966 33.5666C37.6207 33.141 38.049 32.7168 38.473 32.2897C38.8984 32.7152 39.3234 33.1409 39.7479 33.5666C39.3209 33.9909 38.9011 34.422 38.4701 34.8407C38.0461 34.4151 37.6207 33.9922 37.1966 33.5666ZM23.5402 35.5139C23.9684 35.0841 24.3976 34.6552 24.8277 34.2271C25.2545 34.6527 25.6804 35.0788 26.1055 35.5054C25.6773 35.9352 25.249 36.3645 24.8208 36.7934C24.3924 36.3679 23.9656 35.9414 23.5402 35.5139ZM31.3208 35.5168C31.7476 35.0898 32.1745 34.6633 32.6014 34.2372C33.0534 34.6516 33.4937 35.0773 33.9222 35.5141C33.4926 35.9541 33.0518 36.382 32.5999 36.7979C32.1731 36.3708 31.7467 35.9437 31.3208 35.5168ZM39.146 35.5152C39.57 35.0896 39.9968 34.6667 40.4195 34.2424C40.8463 34.6666 41.2727 35.0904 41.6986 35.5139C41.2732 35.938 40.8468 36.3622 40.4195 36.7866C39.9953 36.3622 39.5708 35.9384 39.146 35.5152ZM21.5924 37.4529C22.022 37.0259 22.4516 36.5984 22.8812 36.1704C23.308 36.5974 23.7349 37.0253 24.1619 37.4542C23.7349 37.8798 23.3089 38.3073 22.8839 38.7367C22.4529 38.3096 22.0233 37.8787 21.5924 37.4529ZM29.3743 37.4611C29.8025 37.0327 30.2303 36.6052 30.6576 36.1786C31.0858 36.6056 31.514 37.0331 31.9422 37.4611C31.5154 37.8895 31.0881 38.3179 30.6602 38.7462C30.2306 38.3193 29.802 37.8909 29.3743 37.4611ZM33.2965 37.4611C33.7248 37.0313 34.1558 36.6042 34.5827 36.1744C35.011 36.6015 35.4393 37.0313 35.869 37.4569C35.4393 37.8867 35.0102 38.3169 34.5814 38.7475C34.153 38.3193 33.7247 37.8905 33.2965 37.4611ZM41.0911 37.4598C41.5133 37.0313 41.9419 36.6044 42.3647 36.1746C42.7943 36.603 43.2249 37.0314 43.6564 37.4598C43.2268 37.8882 42.7967 38.3161 42.3662 38.7436C41.9419 38.3151 41.5147 37.8882 41.0911 37.4598ZM31.3152 39.2721C31.7434 38.8451 32.1716 38.4172 32.5999 37.9883C33.0532 38.4041 33.4939 38.8331 33.9278 39.2708C33.4953 39.7117 33.0532 40.1415 32.6014 40.5602C32.1718 40.1304 31.7431 39.701 31.3152 39.2721ZM19.6414 39.4015L20.9332 38.1092C21.3656 38.5404 21.7971 38.972 22.2276 39.4041C21.7979 39.8353 21.3679 40.2661 20.9374 40.6964C20.505 40.2639 20.073 39.8323 19.6414 39.4015ZM23.5346 39.4002C23.9656 38.9704 24.3962 38.5401 24.8264 38.1095C25.2574 38.5393 25.688 38.97 26.1181 39.4017C25.6885 39.8329 25.2585 40.2632 24.828 40.6924C24.3968 40.2626 23.9656 39.8319 23.5346 39.4002ZM27.4249 39.407C27.8574 38.9772 28.2884 38.5445 28.7206 38.1147C29.1488 38.5431 29.5776 38.9715 30.0068 39.3999C29.5758 39.8339 29.1448 40.2665 28.7138 40.6977C28.2842 40.2681 27.8545 39.8379 27.4249 39.407ZM35.2404 39.4086C35.67 38.9775 36.1025 38.549 36.5292 38.1179C36.9588 38.5477 37.3889 38.9766 37.8194 39.4046C37.3884 39.8358 36.9578 40.267 36.5276 40.6982C36.0982 40.2683 35.6691 39.8384 35.2404 39.4086ZM39.1264 39.4044C39.5561 38.9733 39.9886 38.5419 40.4182 38.1108C40.8492 38.5434 41.2807 38.9755 41.7126 39.407L40.4208 40.6993C39.9889 40.2681 39.5575 39.8364 39.1264 39.4044ZM43.0189 39.4044C43.4485 38.9733 43.881 38.5419 44.3106 38.1108C44.7402 38.542 45.1703 38.9727 45.6008 39.4031C45.1712 39.8342 44.7406 40.265 44.309 40.6953C43.8785 40.2654 43.4485 39.835 43.0189 39.4044ZM21.5882 41.3474C22.0192 40.9176 22.4498 40.4874 22.8799 40.0567C23.3109 40.4865 23.7415 40.9173 24.1717 41.349C23.742 41.7802 23.312 42.2104 22.8815 42.6397C22.4503 42.2099 22.0192 41.7791 21.5882 41.3474ZM25.484 41.3487C25.9122 40.9175 26.3418 40.4877 26.7728 40.0593C27.2039 40.4877 27.6339 40.9175 28.063 41.3487C27.6334 41.7785 27.2038 42.2112 26.7742 42.641C26.3432 42.2112 25.9136 41.7788 25.484 41.3487ZM37.1813 41.3516C37.6109 40.9204 38.0419 40.4892 38.4744 40.058C38.9054 40.4906 39.3368 40.9218 39.7688 41.3516C39.3363 41.7828 38.9049 42.2149 38.4744 42.6478C38.0419 42.2168 37.6109 41.7847 37.1813 41.3516ZM41.0729 41.3516C41.5025 40.9205 41.935 40.4891 42.3647 40.058C42.7943 40.4892 43.2243 40.92 43.6548 41.3503C43.2252 41.7815 42.7946 42.2122 42.3631 42.6426C41.9322 42.2122 41.5022 41.7819 41.0729 41.3516ZM19.6456 43.2907C20.0753 42.8595 20.5058 42.4287 20.9374 41.9984L22.2291 43.2907L20.9374 44.5829C20.5064 44.154 20.0758 43.7233 19.6456 43.2907ZM23.5346 43.2946C23.9656 42.8648 24.3962 42.4346 24.8264 42.004C25.2574 42.4337 25.688 42.8645 26.1181 43.2962C25.6885 43.7274 25.2585 44.1576 24.828 44.5869C24.3968 44.1571 23.9656 43.7264 23.5346 43.2946ZM39.1264 43.2989C39.5575 42.8663 39.9889 42.4342 40.4208 42.0026C40.8504 42.4338 41.2805 42.8646 41.711 43.2949C41.28 43.7275 40.8485 44.1591 40.4166 44.5898C39.9856 44.16 39.5555 43.7297 39.1264 43.2989ZM43.0125 43.2907C43.4421 42.8595 43.8727 42.4287 44.3043 41.9984L45.6016 43.2962C45.1719 43.7274 44.7414 44.1582 44.3098 44.5885C43.876 44.1568 43.4435 43.7242 43.0125 43.2907Z" fill="white"/>
<defs>
<linearGradient id="paint0_linear_120_159976" x1="14.5992" y1="18.2705" x2="53.2122" y2="40.515" gradientUnits="userSpaceOnUse">
<stop stop-color="#0071BC"/>
<stop offset="1" stop-color="#662D91"/>
</linearGradient>
<linearGradient id="paint1_linear_120_159976" x1="16.7926" y1="19.9727" x2="50.9705" y2="39.6074" gradientUnits="userSpaceOnUse">
<stop stop-color="#0071BC"/>
<stop offset="1" stop-color="#662D91"/>
</linearGradient>
</defs>
</svg>
