<svg width="64" height="64" viewBox="0 0 64 64" fill="none" xmlns="http://www.w3.org/2000/svg">
<path d="M34.2744 16.099C34.2744 16.099 34.3284 15.9011 34.4903 15.9011C34.6522 15.9011 35.0839 15.8112 35.2098 15.9011C35.3357 15.9911 35.2817 16.2609 35.1378 16.2609C34.9939 16.2609 34.2025 16.2249 34.2744 16.099ZM38.6993 15.5414C39.166 15.7736 39.6539 15.9603 40.1563 16.099C40.2079 16.1079 40.261 16.1043 40.311 16.0887C40.361 16.0731 40.4067 16.0458 40.4441 16.0091C40.588 15.8472 40.7858 15.5414 40.588 15.4515C40.3002 15.3076 39.8325 14.9838 39.095 15.1817C38.3576 15.3795 38.5914 15.5054 38.6993 15.5414ZM15.5677 26.9093C15.5677 26.9093 15.136 26.9273 15.2079 26.4237C15.2799 25.92 15.8555 25.3085 16.1972 25.0746C16.539 24.8408 16.7189 24.6609 16.7189 24.3012C16.7189 23.9415 17.2405 23.6537 17.3664 23.4738C17.4923 23.2939 17.96 23.0601 17.888 23.3659C17.8161 23.6716 17.6362 23.7976 17.6362 24.1933C17.6362 24.589 17.7082 24.8588 17.906 24.4451C18.1039 24.0314 19.327 22.1067 20.5682 21.0995C21.8093 20.0922 23.4641 18.977 23.6799 18.941C23.8958 18.905 24.0217 19.0489 24.0217 19.2827C24.0217 19.5166 23.4281 19.7504 23.1403 20.0022C22.8525 20.2541 19.327 23.0421 18.3197 25.1826C18.1134 25.4695 17.8784 25.7347 17.6182 25.974C17.2765 26.2618 17.2225 26.6755 16.7549 27.1432C16.2872 27.6109 16.3052 28.0965 16.0713 28.1685C15.8375 28.2404 15.5317 27.9526 15.7116 27.341C15.8915 26.7295 16.4491 26.3517 16.8448 25.9021C17.2405 25.4524 17.3844 25.0567 17.2765 25.0567C17.1686 25.0567 16.593 25.1826 16.4311 25.6323C16.2692 26.0819 16.2692 26.2798 16.0713 26.4597C15.8375 26.6755 15.6936 26.9273 15.5677 26.9093ZM24.2735 18.6712C24.2309 18.6911 24.1938 18.7212 24.1655 18.7588C24.1373 18.7965 24.1188 18.8405 24.1116 18.887C24.1062 18.9434 24.1188 19.0001 24.1476 19.0489C24.2555 19.1928 24.5074 19.0849 24.6872 18.923C25.0815 18.639 25.4897 18.3748 25.9104 18.1316C25.9104 18.1316 24.7412 18.4194 24.2735 18.6712Z" fill="white"/>
<path d="M16.6837 28.9777C16.6837 28.9777 16.5218 29.2295 16.288 28.9777C16.0542 28.7259 16.3599 28.2043 16.7557 27.8445C17.1514 27.4848 18.2846 25.686 18.5904 25.1824C19.3724 24.065 20.2976 23.0551 21.3424 22.1785C22.5296 21.2252 24.6521 19.5164 25.7313 18.9048C26.8105 18.2933 28.2855 17.4839 29.8504 17.1781C31.4153 16.8723 34.635 17.1241 38.5742 19.5704C38.624 19.6825 38.6274 19.8098 38.5835 19.9244C38.5397 20.039 38.4523 20.1316 38.3404 20.1819C38.3404 20.1819 34.3112 17.6637 30.8217 17.7896C27.3322 17.9155 24.4902 20.2359 21.954 22.4663C19.4178 24.6967 19.7056 24.9486 19.3818 25.3443C19.058 25.74 18.0328 27.161 17.8529 27.4128C17.673 27.6646 17.0974 28.6719 16.6837 28.9777ZM39.5815 17.5198C35.2646 15.847 32.4945 16.2607 31.6851 16.4406C31.6601 16.4471 31.6379 16.4613 31.6213 16.4811C31.6048 16.5009 31.5949 16.5254 31.5929 16.5511C31.5909 16.5768 31.597 16.6025 31.6103 16.6246C31.6236 16.6467 31.6435 16.6641 31.6671 16.6744C31.8953 16.7433 32.1307 16.7855 32.3686 16.8003C33.3039 16.8903 34.1493 17.0881 34.7609 17.0701C35.3725 17.0522 36.9374 17.232 37.8727 17.5918C38.8081 17.9515 39.2038 18.0954 39.2038 18.0954C39.275 18.0941 39.3445 18.0732 39.4048 18.0352C39.465 17.9971 39.5137 17.9433 39.5455 17.8796C39.7254 17.6457 39.5815 17.5198 39.5815 17.5198Z" fill="white"/>
<path d="M39.1318 18.4732C39.1318 18.4732 39.2937 19.0487 38.7541 19.0847C38.2145 19.1207 36.02 17.7896 35.1746 17.6997C34.3292 17.6098 34.9048 17.0701 36.002 17.3759C37.0993 17.6817 39.1318 18.4732 39.1318 18.4732ZM36.1819 15.7391C36.1578 15.7477 36.1369 15.7635 36.1221 15.7845C36.1074 15.8054 36.0994 15.8304 36.0994 15.856C36.0994 15.8816 36.1074 15.9066 36.1221 15.9275C36.1369 15.9485 36.1578 15.9643 36.1819 15.9729C36.4862 16.1089 36.8065 16.2056 37.1352 16.2607C37.6389 16.2967 39.0059 16.7284 39.6535 17.0701C40.0672 17.286 40.283 16.5305 40.0132 16.4406C39.5275 16.2607 38.3044 15.7931 37.9267 15.7031C37.5849 15.6132 36.6856 15.5592 36.1819 15.7391ZM28.7172 19.1027C34.5271 18.3113 37.5489 21.1533 37.9267 21.0813C38.3044 21.0094 38.1965 20.5956 38.1965 20.5956C36.7395 19.3725 33.178 17.9335 29.8684 18.3472C26.5587 18.7609 24.778 20.9374 24.1125 21.3331C23.4469 21.7288 22.9073 22.5742 22.3857 23.0779C21.8641 23.5815 21.1086 23.7434 20.8927 23.9233C20.6769 24.1032 17.637 28.6 17.2413 29.0856C16.8456 29.5713 16.7377 30.021 17.0794 30.2008C17.4212 30.3807 17.637 29.8051 17.637 29.8051C17.637 29.8051 19.2379 27.179 19.5977 26.7653C19.9574 26.3516 21.1266 24.5349 21.3604 24.2471C21.5942 23.9593 21.8641 24.0132 21.7741 24.2471C21.6842 24.4809 19.8315 27.161 19.4897 27.5747C19.148 27.9884 17.655 30.039 17.5651 30.7764C17.4752 31.5139 18.0148 31.6398 18.4285 30.6685C18.8422 29.6972 19.4717 28.3302 19.7236 28.0604C19.9754 27.7905 20.8927 26.7653 21.1266 26.2976C21.3604 25.8299 22.3857 23.9593 23.1951 23.0599C24.0113 22.1962 24.9088 21.4131 25.8752 20.7216C26.3531 20.3856 26.8585 20.0908 27.3861 19.8402C27.656 19.7143 28.1236 19.1747 28.7172 19.1027Z" fill="white"/>
<path d="M22.3313 24.9488C22.3313 24.9488 23.7343 22.8263 25.2272 21.801C26.7202 20.7758 27.5836 20.0563 28.0512 19.8764C28.5189 19.6965 30.1198 18.8691 33.7532 19.6965C37.3866 20.5239 37.8183 21.7111 37.6564 21.9449C37.4946 22.1788 36.919 21.819 36.0916 21.3693C35.2641 20.9197 33.6993 20.2182 32.4401 20.2541C31.181 20.2901 28.6988 21.1535 28.5369 21.2974C28.375 21.4413 28.357 21.0096 28.7887 20.9197C29.2204 20.8297 29.4902 20.488 29.76 20.452C30.0298 20.416 30.4256 20.3261 30.4256 20.1102C30.4256 19.8944 29.5262 19.9304 29.0765 20.1102C28.6268 20.2901 26.8821 21.2794 26.5583 21.4593C26.2345 21.6391 25.8028 21.7651 25.7309 22.0349C25.6589 22.3047 25.1193 22.9342 24.8495 23.0781C24.5797 23.222 23.2307 24.2833 23.0868 24.5351C23.0248 24.6782 22.9168 24.7966 22.78 24.8715C22.6432 24.9465 22.4853 24.9736 22.3313 24.9488Z" fill="white"/>
<path d="M25.1191 23.2759C25.1191 23.2759 25.299 23.5457 26.0544 22.9701C26.8099 22.3945 26.8998 22.2686 26.9718 22.2686C27.0437 22.2686 26.8459 21.9808 26.702 22.1067C26.5581 22.2326 25.1371 23.0241 25.1191 23.2759ZM27.2056 22.8082C27.2056 22.8082 26.9898 22.7543 27.4035 22.4485C27.8172 22.1427 30.5333 20.5239 32.4939 20.6318C34.4545 20.7397 36.7209 21.8909 37.1166 22.2326C37.5123 22.5744 37.2245 23.2579 37.1166 23.2219C37.0087 23.186 34.5624 21.3333 32.8716 21.2793C31.1808 21.2253 29.472 21.8729 28.7705 22.3226C28.069 22.7722 27.8172 22.9341 27.2056 22.8082Z" fill="white"/>
<path d="M29.3999 22.7004C29.3797 22.6949 29.3614 22.6837 29.3472 22.6682C29.333 22.6527 29.3234 22.6335 29.3197 22.6128C29.3159 22.5921 29.3181 22.5708 29.3259 22.5513C29.3337 22.5318 29.3469 22.5149 29.364 22.5026C29.9409 22.1138 30.5901 21.8449 31.273 21.7121C31.9559 21.5792 32.6585 21.585 33.3391 21.7291C35.7674 22.2508 36.7747 23.4019 36.8287 23.6717C36.8826 23.9416 36.7927 24.5711 36.4329 24.4452C36.0732 24.3193 34.904 22.5385 33.0154 22.3767C31.1987 22.2148 30.7849 23.0242 29.3999 22.7004Z" fill="white"/>
<path d="M31.9005 23.1321L31.6847 23.0601C31.6487 23.0422 31.6667 23.0062 31.6847 23.0062C31.9905 22.9342 33.0157 22.7364 33.9511 23.0781C34.6161 23.3528 35.2165 23.7633 35.7138 24.2833C35.7225 24.2918 35.728 24.3029 35.7295 24.3149C35.731 24.3269 35.7284 24.3391 35.7222 24.3495C35.716 24.3598 35.7065 24.3678 35.6952 24.3721C35.6839 24.3764 35.6714 24.3768 35.6599 24.3732L31.9005 23.1321ZM18.8058 32.3056C18.8058 32.3056 18.6979 32.6474 18.3921 32.3955C18.0863 32.1437 18.2842 31.748 18.3921 31.4602C18.5 31.1724 19.3274 29.4816 19.5253 29.2837C19.7232 29.0859 20.4606 28.2045 20.4606 28.0066C20.4606 27.8088 20.6585 28.5642 19.903 29.7154C19.1835 30.8666 19.4713 31.1724 18.8058 32.3056ZM19.4534 33.4388C19.4534 33.4388 19.3454 33.6726 19.1476 33.4388C18.9497 33.205 19.1296 32.6474 19.3634 32.0897C19.5973 31.5321 19.921 30.273 20.0829 30.0212C20.2448 29.7694 20.2628 30.327 20.2628 30.4889C20.2628 30.6508 20.3167 31.5321 20.011 32.2876C19.8663 32.69 19.6794 33.0759 19.4534 33.4388ZM20.3887 34.536C20.3887 34.536 20.1728 34.8958 19.903 34.4641C19.8113 34.3187 19.7626 34.1503 19.7626 33.9784C19.7626 33.8065 19.8113 33.6381 19.903 33.4928C19.993 33.3309 20.1189 32.8092 20.1908 32.7193C20.2628 32.6294 20.3527 32.8452 20.3887 33.115C20.4247 33.3848 20.5866 33.6906 20.5866 33.8165C20.5866 33.9424 20.5506 34.3561 20.3887 34.536ZM20.9103 34.9677C20.8773 34.865 20.8288 34.768 20.7664 34.6799C20.7125 34.6439 20.5326 34.8778 20.5146 35.0576C20.4966 35.2375 20.6945 35.3095 20.7125 35.4713C20.7304 35.6332 20.8743 35.4354 20.9103 35.2555C20.9322 35.1608 20.9322 35.0624 20.9103 34.9677ZM21.4679 29.5715C21.647 28.5621 22.0803 27.6149 22.727 26.8195C23.7703 25.5963 24.256 25.3985 24.256 25.3985C24.256 25.3985 24.3999 25.3625 24.3279 25.6503C24.256 25.9381 23.7163 26.6036 23.6264 26.8015C23.5365 26.9993 22.8889 27.6469 22.8889 27.7548C22.8889 27.8627 23.1767 27.7728 23.2127 27.8268C23.2487 27.8807 23.3746 27.9527 23.2127 28.3304C23.0508 28.7081 22.4213 30.0392 22.4033 30.327C22.3853 30.6148 21.4499 32.7733 21.36 32.7733C21.2701 32.7733 21.0722 32.7553 21.0902 32.0897C21.1082 31.4242 22.0975 28.924 22.3673 28.5103C22.6371 28.0966 22.6551 28.0966 22.5472 28.1146C22.4392 28.1325 21.7737 28.852 21.6838 29.3557C21.5938 29.8593 21.4679 29.5715 21.4679 29.5715ZM23.9861 29.4096C23.9861 29.4096 23.7343 30.0032 23.2127 29.9672C22.6911 29.9313 23.4825 28.6182 23.6084 28.0606C23.7343 27.503 24.7056 25.3625 24.9035 25.1826C25.1014 25.0028 25.641 24.7869 25.7309 24.9668C25.8208 25.1467 25.4431 25.3985 25.2453 25.7942C25.0474 26.1899 24.4358 27.3051 24.3819 27.7009C24.3279 28.0966 23.9861 29.4096 23.9861 29.4096Z" fill="white"/>
<path d="M23.4826 30.6688C23.4996 30.6252 23.5074 30.5786 23.5056 30.5319C23.5038 30.4852 23.4924 30.4393 23.4722 30.3972C23.4519 30.355 23.4233 30.3175 23.3879 30.2869C23.3526 30.2562 23.3114 30.2332 23.2668 30.2191C22.925 30.0752 22.907 30.1832 22.7452 30.453C22.5833 30.7228 21.54 33.241 21.54 33.6187C21.54 33.9965 21.6479 34.698 21.7738 34.8059C21.8998 34.9138 22.0257 34.7159 22.0257 34.4461C22.0684 34.1145 22.2058 33.8023 22.4214 33.5468C22.5287 33.3978 22.6033 33.2279 22.6405 33.0482C22.6777 32.8684 22.6766 32.6828 22.6372 32.5035C22.5653 32.0718 23.2488 31.3703 23.2488 31.3703C23.2517 31.8749 23.2277 32.3792 23.1768 32.8812C23.1049 33.3309 22.6372 33.6907 22.5293 33.8885C22.4214 34.0864 22.3674 34.8598 22.2775 35.0937C22.1881 35.3787 22.1696 35.6812 22.2235 35.9751C22.2775 36.2089 22.4214 36.7845 22.5113 36.3708C22.6013 35.9571 22.925 34.7339 23.015 34.7519C23.1049 34.7699 23.0869 36.101 23.033 36.3708C22.979 36.6406 22.907 37.9537 22.907 38.1155C22.907 38.2774 22.4214 39.0149 22.3314 39.2847C22.2415 39.5545 21.7019 40.5438 21.7019 40.5978C21.7019 40.6517 22.2415 40.5978 22.5833 40.328C22.7127 40.2154 22.8178 40.0775 22.892 39.9229C22.9662 39.7682 23.0081 39.6 23.015 39.4286C23.015 39.2128 22.979 38.6911 23.1049 38.3853C23.2308 38.0796 23.5546 37.3601 23.6085 37.0723C23.6536 36.3355 23.6536 35.5966 23.6085 34.8598C23.5726 34.4461 23.6625 32.7014 23.7884 32.3416C23.9143 31.9819 23.9323 31.802 24.0223 31.802C24.1122 31.802 24.0582 32.8992 24.0223 33.241C23.9863 33.5827 23.8963 34.698 23.8963 34.8598C23.7425 36.235 23.9599 37.6263 24.5259 38.889C24.5259 38.889 24.6158 39.2847 25.0475 39.0149C25.4792 38.7451 24.8497 37.5399 24.7417 37.1982C24.6338 36.8564 24.2741 35.0757 24.4 34.8239C24.5259 34.572 25.2454 37.3061 25.2634 37.5759C25.2814 37.8457 25.3713 38.6911 25.5152 38.7091C25.6591 38.7271 26.2527 38.3674 26.2527 38.2954C26.2519 38.1037 26.1957 37.9163 26.0908 37.7558C25.9289 37.486 25.0655 35.2736 24.9036 33.4388C24.7417 31.6041 25.0295 28.4744 25.1734 28.1506C25.3173 27.8268 25.9829 26.3519 26.1447 26.118C26.3066 25.8842 26.7743 24.9129 26.8642 24.8769C26.9542 24.8409 27.0441 24.8409 27.0441 24.9489C26.9341 25.3221 26.802 25.6885 26.6484 26.0461C26.5405 26.3519 25.9649 27.2692 25.857 27.575C25.5282 28.5467 25.3227 29.5559 25.2454 30.5789C25.0835 32.1977 25.4612 34.9318 25.5692 35.4714C25.6771 36.011 26.3606 37.8457 26.7383 38.0076C27.1161 38.1695 27.4398 37.6838 27.3859 37.5939C27.3319 37.504 26.5405 36.065 26.3606 35.4714C26.1807 34.8778 25.857 33.4568 25.9109 33.1331C25.9649 32.8093 26.3786 35.8312 27.7996 37.414C27.7996 37.414 27.9794 37.522 28.3032 37.3061C28.627 37.0903 28.609 36.9104 28.3032 36.5686C27.9974 36.2269 26.9542 34.2123 26.8103 33.6907C26.6664 33.169 26.0368 31.4423 26.0009 31.3883C25.932 30.7766 25.9562 30.158 26.0728 29.5536C26.2347 28.7981 26.4685 27.7369 26.4865 27.4491C26.5045 27.1613 26.9722 26.5138 27.0801 26.3699C27.188 26.226 27.4398 25.5424 27.5657 25.0568C27.6917 24.5711 27.9435 24.2474 27.7276 24.2114C27.5118 24.1754 26.7203 24.3013 26.5764 24.4632C26.4325 24.6251 25.857 24.9668 24.6338 27.7549C24.6338 27.7549 24.2921 28.4024 24.2921 28.7801C24.2919 29.2693 24.1411 29.7466 23.8604 30.1472C23.7579 30.3369 23.6309 30.5122 23.4826 30.6688Z" fill="white"/>
<path d="M23.7698 38.0612C23.7273 38.054 23.6838 38.0553 23.6417 38.065C23.5997 38.0746 23.56 38.0925 23.5249 38.1176C23.4898 38.1427 23.46 38.1744 23.4372 38.2111C23.4144 38.2477 23.3991 38.2885 23.3921 38.331C23.3555 38.6655 23.3434 39.0021 23.3561 39.3383C23.3382 39.5182 23.1223 39.9679 23.1763 40.0038C23.2302 40.0398 23.6439 39.9319 23.8418 39.6981C24.0639 39.4555 24.1971 39.1448 24.2195 38.8167C24.2195 38.5109 24.1116 38.0612 23.7698 38.0612ZM28.9502 24.6427C28.9502 24.6427 29.22 24.319 29.148 24.247C29.0761 24.1751 28.6804 23.9412 28.5365 24.1211C28.1689 24.6403 27.8782 25.2098 27.6731 25.8119C27.5292 26.3515 26.7377 27.8805 26.6658 28.2042C26.4875 29.1845 26.4753 30.1878 26.6298 31.1721C26.8457 32.719 28.1947 35.8668 28.7883 36.5323C29.3819 37.1978 29.9575 36.5323 29.9575 36.5323L29.5078 36.0107C29.5078 36.0107 28.3926 33.9961 28.2487 33.7623C28.1048 33.5284 27.3313 31.7657 27.3853 31.1901C27.4392 30.6145 27.5652 29.8231 27.3673 29.0676C27.1694 28.3121 28.0688 26.4595 28.2127 26.1897C28.3566 25.9558 28.9502 24.6427 28.9502 24.6427Z" fill="white"/>
<path d="M28.4651 28.6004C28.4782 28.3123 28.5327 28.0276 28.627 27.755C28.7529 27.3953 28.8968 26.8017 28.627 26.6578C28.3572 26.5139 27.8895 26.6218 27.8895 27.6291C27.8895 28.6364 27.6557 29.7876 27.8895 31.2985C28.1234 32.8095 29.2566 35.4716 30.7675 36.8386C32.2784 38.2056 32.0086 37.738 32.7461 38.4035C33.4836 39.069 37.2249 39.7705 38.2682 39.6446C39.3114 39.5187 39.5812 39.0151 39.6352 38.8352C39.6892 38.6553 39.5453 38.3495 39.4014 38.4934C39.2575 38.6373 38.484 39.3388 35.9478 38.7812C33.4116 38.2236 32.7461 37.5941 32.6022 37.4682C32.4583 37.3423 31.0373 35.8853 30.8754 35.7414C30.7135 35.5975 29.0767 33.3671 29.0767 33.0433C29.0767 32.7195 31.1992 36.7667 34.0232 37.8459C36.8472 38.9251 37.8904 38.7453 38.4301 38.5654C38.9697 38.3855 39.5273 38.2236 39.5273 38.0258C39.5273 37.8279 39.5093 37.4502 39.3294 37.4502C39.1495 37.4502 38.0883 38.0797 37.5847 38.0258C37.081 37.9718 36.3435 37.648 35.66 37.648C34.9765 37.648 33.5375 36.8026 33.1778 36.4609C32.818 36.1191 30.9114 35.1478 29.0767 31.2086C29.0587 31.2266 28.3752 29.194 28.4651 28.6004Z" fill="white"/>
<path d="M33.4297 39.1229C33.4297 39.1229 32.6742 38.6193 32.5303 38.6373C32.3864 38.6553 32.4044 38.9071 32.4224 39.1769C32.4404 39.4467 32.5483 39.7345 32.7282 39.7705C32.9081 39.8065 33.3937 39.6985 33.5017 39.7705C34.3694 40.2079 35.3191 40.4591 36.2897 40.508C37.7466 40.5619 38.0344 40.6159 38.4481 40.5799C38.8619 40.5439 39.5634 40.2921 39.6173 40.1302C39.6713 39.9683 39.6353 39.4647 39.4914 39.4647C39.3475 39.4647 39.1856 40.1842 36.4336 39.8604C33.7175 39.5007 33.4297 39.1229 33.4297 39.1229Z" fill="white"/>
<path d="M33.7895 40.238C33.7895 40.238 33.2319 39.8423 33.07 40.0042C32.9081 40.1661 32.8722 40.6517 33.4298 40.7776C33.9874 40.9035 35.2465 41.2633 35.5343 41.3172C36.0982 41.4225 36.6696 41.4826 37.243 41.4971C37.8546 41.4971 38.4662 41.2093 38.718 41.2093C38.9698 41.2093 39.7253 41.2093 39.7612 41.0474C39.7653 40.8576 39.7348 40.6687 39.6713 40.4898C39.6533 40.4179 39.4375 40.4359 39.2936 40.5078C38.8296 40.6914 38.3472 40.824 37.8546 40.9035C37.0289 40.9521 36.2003 40.8916 35.3904 40.7237C34.8467 40.5967 34.312 40.4345 33.7895 40.238Z" fill="white"/>
<path d="M39.203 41.8028C39.203 41.8028 38.0518 42.5943 34.8501 42.0906C31.6484 41.587 32.4758 40.3279 32.5477 40.3818C32.6197 40.4358 32.8895 40.8135 33.0873 40.8855C33.2852 40.9574 35.6775 41.7489 36.343 41.7669C37.0085 41.7848 37.8719 41.7489 38.2497 41.623C38.6274 41.4971 39.131 41.1733 39.3289 41.4431C39.5268 41.6769 39.203 41.8028 39.203 41.8028Z" fill="white"/>
<path d="M32.9619 41.8387C32.9619 41.8387 32.6741 41.6409 32.6741 41.8387C32.6881 41.9805 32.7386 42.1163 32.8205 42.2329C32.9024 42.3495 33.0131 42.443 33.1418 42.5042C33.3931 42.6308 33.6699 42.6985 33.9512 42.7021C34.2915 42.7293 34.6223 42.8273 34.9225 42.9899C35.1923 43.1158 36.1456 43.4935 37.8005 43.1878C39.4553 42.882 39.869 42.4863 39.941 42.3783C39.995 42.2148 39.995 42.0382 39.941 41.8747C39.905 41.6948 39.7791 41.6229 39.6352 41.7668C39.4913 41.9107 38.52 42.7741 36.1456 42.6122C33.7713 42.4503 32.9619 41.8387 32.9619 41.8387Z" fill="white"/>
<path d="M34.58 43.1334C34.58 43.1334 34.3821 42.8456 33.8425 42.9895C33.3029 43.1334 35.2275 44.1587 35.3355 44.2486C35.4434 44.3386 35.5693 44.3925 36.037 44.3386C36.5046 44.2846 37.8357 44.2126 38.3034 44.1047C38.771 43.9968 39.7064 43.727 39.9942 43.3672C40.282 43.0074 40.1741 42.7736 39.9042 42.8096C39.6344 42.8456 37.9796 43.8709 36.3248 43.727C34.6699 43.5831 34.58 43.1334 34.58 43.1334Z" fill="white"/>
<path d="M36.8825 44.5912C36.8825 44.5912 36.0731 44.6092 36.109 44.7711C36.1788 44.9131 36.2902 45.0305 36.4284 45.1076C36.5666 45.1847 36.725 45.2179 36.8825 45.2028C37.2422 45.1308 39.2568 44.8071 39.6705 44.5912C40.0842 44.3754 40.426 44.3214 40.426 44.0696C40.426 43.8178 40.354 43.53 40.1741 43.5839C39.9943 43.6379 38.2495 44.7531 36.8825 44.5912ZM38.4833 45.3107C38.4833 45.3107 37.602 45.5985 37.602 45.6884C37.602 45.7784 37.9617 46.1921 38.2495 46.1741C38.5373 46.1561 39.1669 45.7424 39.4906 45.6345C39.8144 45.5266 40.5879 45.4186 40.6238 45.2028C40.6517 44.979 40.6076 44.7522 40.4979 44.5552C40.4386 44.5283 40.3742 44.5144 40.3091 44.5144C40.2439 44.5144 40.1795 44.5283 40.1202 44.5552C39.9943 44.6272 38.7711 45.2927 38.4833 45.3107ZM39.3287 46.6777C39.2307 46.7255 39.123 46.7503 39.014 46.7503C38.9049 46.7503 38.7973 46.7255 38.6992 46.6777C38.3574 46.5159 38.4833 46.318 38.7711 46.1741C39.0589 46.0302 39.5986 45.8323 39.7964 45.7424C39.9943 45.6525 40.5339 45.4546 40.6238 45.5266C40.7186 45.6257 40.7813 45.751 40.8037 45.8863C40.8037 45.9762 39.3287 46.6777 39.3287 46.6777ZM39.8144 47.4872C39.8144 47.4872 39.2748 47.1994 39.2748 47.1274C39.3106 47.0548 39.3639 46.9921 39.4298 46.9451C39.4957 46.898 39.5722 46.868 39.6525 46.8576C39.8144 46.8576 40.9116 46.4079 40.9116 46.4079C40.9116 46.4079 41.1994 46.6777 41.1994 46.9476C41.1994 47.2174 40.0303 47.5231 39.8144 47.4872ZM41.1994 48.0808C41.0449 48.11 40.8863 48.11 40.7318 48.0808C40.5699 48.0268 40.354 47.793 40.2821 47.793C40.2101 47.793 40.444 47.6491 40.6238 47.6311C40.8037 47.6131 41.1095 47.5052 41.2174 47.4872C41.3253 47.4692 41.4692 47.6131 41.4692 47.793C41.4692 47.9728 41.1994 48.0808 41.1994 48.0808ZM30.3351 24.8232C30.4501 24.715 30.5527 24.5944 30.6409 24.4635C30.6409 24.4095 30.0833 24.0678 29.8135 24.1217C29.5437 24.1757 28.6263 25.9744 28.9141 28.4746C29.2019 30.9749 29.8495 33.547 33.375 36.3171C34.0536 36.8614 34.8437 37.2499 35.6891 37.4551C36.5346 37.6602 37.4148 37.677 38.2675 37.5042C38.2675 37.5042 38.5193 37.2704 38.1596 37.2524C37.7998 37.2344 35.9112 36.8927 35.2816 36.6049C34.6521 36.3171 33.285 35.004 33.0692 34.9141C32.8533 34.8241 31.2345 33.1513 31.1985 32.9535C31.1625 32.7556 30.533 31.6224 30.3891 31.0828C30.2452 30.5432 29.8854 28.2768 29.7775 27.8451C29.6696 27.4134 29.5617 26.7119 29.5976 26.4601C29.6336 26.2082 30.0293 25.183 30.3351 24.8232Z" fill="white"/>
<path d="M31.5765 25.0929C31.5765 25.0929 31.9003 25.003 31.9183 24.8951C31.9363 24.7872 31.8823 24.5353 31.4506 24.4634C31.0189 24.3914 30.6052 24.6972 30.3174 25.4707C30.0296 26.2441 30.1555 27.881 30.5333 28.8883C30.911 29.8955 30.6951 30.705 31.3966 32.054C32.0981 33.4031 32.0802 33.4031 32.35 33.6189C32.6198 33.8348 33.9149 35.0939 34.1127 35.2917C34.3106 35.4896 35.4618 36.245 35.6776 36.245C35.8935 36.245 36.0014 35.8853 35.9834 35.7054C35.9654 35.5256 35.9474 35.4356 35.6416 35.4176C35.3358 35.3996 34.9042 34.896 34.9042 34.896C34.9042 34.896 33.2673 33.3491 33.1414 33.2771C33.0155 33.2052 31.6844 31.6943 31.6844 31.5144C31.6844 31.3345 31.7024 31.0827 31.8104 31.2266C31.9183 31.3705 32.6917 32.4857 33.1954 32.9534C33.699 33.421 35.2999 34.7701 35.6776 34.932C36.0553 35.0939 36.2352 35.1118 36.2712 34.8061C36.3072 34.5003 36.487 34.3564 36.6489 34.4463C36.8108 34.5363 38.0159 35.2378 38.3937 35.1838C38.7714 35.1298 39.329 34.5722 39.5089 34.6082C39.6888 34.6442 39.1851 35.2018 39.0232 35.2917C38.8613 35.3817 39.1491 35.5795 39.2031 35.6155C39.3027 35.6696 39.4166 35.6917 39.5292 35.6788C39.6418 35.6659 39.7478 35.6187 39.8327 35.5435C40.1204 35.2917 40.1564 34.95 39.9586 34.5003C39.7607 34.0506 39.7067 33.2951 39.6528 33.1512C39.5988 33.0073 39.5269 32.7915 39.383 33.1512C39.2391 33.511 38.9693 34.2485 38.0339 34.2844C36.9241 34.375 35.8174 34.076 34.9042 33.439C33.753 32.6836 32.368 31.6403 31.2887 28.5645C30.2095 25.4887 31.5765 25.0929 31.5765 25.0929Z" fill="white"/>
<path d="M39.2396 31.6401C39.1921 31.6175 39.1386 31.6105 39.0869 31.6202C39.0351 31.6299 38.9878 31.6558 38.9518 31.6941C38.8978 31.784 38.8259 31.3703 38.9338 30.9746C39.0417 30.5789 38.9518 29.9853 38.8259 30.0213C38.6999 30.0573 37.7286 31.6042 36.6494 31.0106C35.5702 30.417 34.2211 28.7262 33.8434 27.9707C33.4656 27.2153 32.998 26.3519 33.0699 25.8482C33.0699 25.8482 33.1239 25.4525 33.1419 25.3446C33.1599 25.2367 32.926 24.805 32.6382 24.9129C32.3504 25.0208 31.6489 25.4165 31.559 25.7043C31.4691 25.9921 31.1813 26.2619 31.3252 27.0894C31.4691 27.9168 31.9008 28.978 32.0626 29.4637C32.2245 29.9493 32.7282 31.0466 33.2678 31.5322C33.8074 32.0179 34.8687 32.9712 35.3363 33.187C35.804 33.4029 36.7933 34.1404 38.0704 33.8526C39.3475 33.5648 39.3655 32.2877 39.3655 32.1618C39.3534 31.982 39.3108 31.8056 39.2396 31.6401ZM33.6275 31.2624C33.5736 31.1905 32.944 30.2191 32.8721 30.1652C33.2137 30.4189 33.5327 30.7017 33.8254 31.0106C34.1851 31.4243 34.5089 31.9099 34.5089 32.0538C34.5089 32.0538 33.6815 31.3344 33.6275 31.2624ZM37.4049 32.7733C36.3976 32.7374 36.0198 32.2877 35.75 32.1258C35.4802 31.9639 34.7787 31.0645 34.1851 30.453C33.5916 29.8414 33.1239 29.3198 32.926 28.942C32.7282 28.5643 32.2065 26.7116 32.1526 26.4958C32.0986 26.2799 32.4404 26.1001 32.4404 26.208C32.4485 26.4015 32.4726 26.594 32.5123 26.7836C32.4763 27.6829 33.5556 29.2658 33.6995 29.5716C33.8434 29.8774 35.0845 31.2264 36.1817 31.9639C37.2789 32.7014 37.9984 32.3057 38.1783 32.2337C38.3582 32.1618 38.556 32.1618 38.61 32.2337C38.664 32.3057 38.4121 32.8093 37.4049 32.7733Z" fill="white"/>
<path d="M38.6996 29.1581C38.5377 29.1581 38.178 29.5898 38.124 29.338C38.0701 29.0862 38.3759 28.5465 38.3759 28.0429C38.3759 27.5393 38.2679 26.5859 38.0341 26.1183C37.8003 25.6506 37.5664 25.2369 37.1527 25.4887C36.739 25.7405 36.9549 25.9384 37.1347 26.1722C37.3146 26.4061 37.7643 26.9277 37.7643 27.5393C37.7643 28.1508 37.6744 28.9423 37.4405 28.9962C37.2067 29.0502 36.6491 28.8703 36.1454 28.4746C35.6075 28.0717 35.1077 27.6201 34.6525 27.1255C34.4906 26.8917 34.1668 26.3521 34.2568 26.2622C34.3467 26.1722 34.4906 26.1362 34.6345 26.3881C34.7784 26.6399 35.4799 27.3774 35.6598 27.5572C35.9604 27.8578 36.2788 28.1401 36.6131 28.4026C36.829 28.5465 37.0988 28.7984 37.2966 28.4746C37.4945 28.1508 37.5305 27.3774 37.3686 27.0896C37.2067 26.8018 36.9369 26.2981 36.8469 26.1722C36.757 26.0463 36.6131 25.8305 36.3073 25.9564C36.0015 26.0823 36.0195 26.3341 36.1275 26.424C36.2354 26.514 36.721 26.8557 36.757 27.0896C36.793 27.3234 36.9009 27.7371 36.721 27.5393C36.5412 27.3414 36.0735 26.6939 35.9476 26.6219C35.8217 26.55 34.9583 26.0103 34.9583 26.0103C34.9583 26.0103 33.915 25.5786 33.8431 25.4707C33.7711 25.3628 33.5553 25.3448 33.7172 25.9564C33.879 26.5679 33.987 27.3054 34.4367 27.863C34.6888 28.1548 34.8731 28.4988 34.9763 28.8703C35.0662 29.1401 35.9656 30.4712 37.1168 30.759C38.2679 31.0468 38.6816 29.7157 38.7356 29.6078C38.7896 29.4999 38.8615 29.1581 38.6996 29.1581ZM37.6024 29.9675C37.5664 30.2373 37.0628 29.9495 36.8469 29.9675C36.6311 29.9855 36.2354 29.6258 35.9836 29.338C35.7317 29.0502 35.5339 28.7444 35.6058 28.7084C35.6778 28.6725 36.0015 29.0682 36.3253 29.248C36.6491 29.4279 37.0808 29.6797 37.3686 29.6438C37.6564 29.6078 37.6024 29.9675 37.6024 29.9675ZM40.0667 35.6515C40.0667 35.6515 39.8328 35.9213 39.8328 36.0292C39.8328 36.1372 39.9587 36.1911 39.9587 36.299C39.9587 36.407 40.0487 36.4609 40.1746 36.371C40.3005 36.2811 40.3005 36.1731 40.2825 36.0292C40.2645 35.8853 40.3005 35.5975 40.0667 35.6515ZM40.3005 36.6048C40.3005 36.6048 40.0667 36.7487 40.0667 36.9286C40.0576 37.0784 40.0576 37.2285 40.0667 37.3783C40.0773 37.4079 40.0968 37.4336 40.1226 37.4517C40.1484 37.4698 40.1791 37.4795 40.2106 37.4795C40.2421 37.4795 40.2728 37.4698 40.2985 37.4517C40.3243 37.4336 40.3438 37.4079 40.3545 37.3783C40.4264 37.2344 40.5164 37.1444 40.4444 36.9646C40.3725 36.8207 40.4444 36.4789 40.3005 36.6048ZM40.4804 38.3496C40.4804 38.3496 40.1566 38.5834 40.1746 38.4575C40.1926 38.3316 40.2106 37.792 40.3185 37.774C40.4264 37.756 40.4264 37.5402 40.6063 37.8639C40.7862 38.1877 40.6602 38.2417 40.4804 38.3496ZM40.7502 38.7633C40.7502 38.7633 40.8401 38.4215 40.5883 38.6374C40.3365 38.8532 40.2645 38.7813 40.2825 38.9252C40.3005 39.0691 40.3545 39.3209 40.4984 39.2849C40.6063 39.249 40.8581 39.3029 40.7502 38.7633ZM40.8941 39.4828C40.8941 39.4828 40.4804 39.6807 40.5163 39.9145C40.5523 40.1483 40.7502 40.3822 40.8401 40.3822C40.9301 40.3822 41.074 40.1303 41.02 39.9325C40.966 39.7346 41.038 39.3929 40.8941 39.4828Z" fill="white"/>
<path d="M31.7021 8.9939C27.2267 8.9939 22.8519 10.321 19.1307 12.8074C15.4096 15.2938 12.5093 18.8278 10.7966 22.9625C9.08396 27.0972 8.63585 31.647 9.50896 36.0364C10.3821 40.4257 12.5372 44.4577 15.7017 47.6222C18.8663 50.7868 22.8982 52.9419 27.2876 53.815C31.677 54.6881 36.2268 54.24 40.3615 52.5274C44.4962 50.8147 48.0302 47.9144 50.5166 44.1933C53.003 40.4721 54.3301 36.0972 54.3301 31.6219C54.3308 28.6501 53.746 25.7073 52.6091 22.9617C51.4722 20.216 49.8054 17.7212 47.7041 15.6199C45.6028 13.5186 43.108 11.8518 40.3623 10.7149C37.6166 9.57799 34.6739 8.99319 31.7021 8.9939ZM31.7021 52.7389C27.5238 52.7407 23.4388 51.5034 19.9636 49.1835C16.4885 46.8636 13.7793 43.5653 12.1787 39.7058C10.5781 35.8462 10.1579 31.5986 10.9713 27.5002C11.7847 23.4018 13.7952 19.6367 16.7484 16.6809C19.7017 13.7251 23.4651 11.7114 27.5628 10.8945C31.6605 10.0776 35.9084 10.4942 39.7694 12.0915C43.6304 13.6889 46.9309 16.3952 49.2538 19.8684C51.5766 23.3416 52.8174 27.4255 52.8192 31.6039C52.8213 34.3784 52.2767 37.1262 51.2164 39.6903C50.1561 42.2543 48.601 44.5842 46.64 46.547C44.6789 48.5097 42.3502 50.0668 39.7871 51.1292C37.224 52.1917 34.4767 52.7387 31.7021 52.7389Z" fill="white"/>
<path d="M31.7027 5.27054C26.4909 5.27054 21.3961 6.81602 17.0627 9.71154C12.7292 12.6071 9.35168 16.7226 7.35721 21.5377C5.36274 26.3527 4.84089 31.6511 5.85766 36.7628C6.87444 41.8744 9.38416 46.5698 13.0695 50.2551C16.7548 53.9404 21.4501 56.4501 26.5618 57.4669C31.6734 58.4837 36.9718 57.9618 41.7869 55.9673C46.602 53.9729 50.7175 50.5954 53.613 46.2619C56.5085 41.9284 58.054 36.8337 58.054 31.6219C58.0535 24.6332 55.2771 17.9309 50.3354 12.9892C45.3936 8.04746 38.6913 5.27102 31.7027 5.27054V5.27054ZM31.7027 55.509C26.9783 55.509 22.3599 54.108 18.4317 51.4833C14.5035 48.8585 11.4418 45.1279 9.63388 40.7631C7.82592 36.3983 7.35288 31.5954 8.27457 26.9617C9.19626 22.3281 11.4713 18.0718 14.812 14.7312C18.1526 11.3905 22.4089 9.11547 27.0425 8.19378C31.6762 7.27209 36.4791 7.74513 40.8439 9.55309C45.2087 11.361 48.9393 14.4227 51.5641 18.3509C54.1888 22.2791 55.5898 26.8975 55.5898 31.6219C55.5869 37.9562 53.0693 44.0304 48.5902 48.5094C44.1112 52.9885 38.037 55.5061 31.7027 55.509Z" fill="white"/>
</svg>
