<svg width="64" height="64" viewBox="0 0 64 64" fill="none" xmlns="http://www.w3.org/2000/svg">
<path d="M32.2782 57.9736C30.9949 57.9736 29.7116 57.6207 28.5887 56.9791L12.1948 47.5149C9.88488 46.1674 8.47327 43.7292 8.47327 41.0664V22.1379C8.47327 19.5072 9.88488 17.0369 12.1627 15.7215L28.5887 6.25728C30.8666 4.94191 33.6898 4.94191 35.9997 6.25728L52.3937 15.7215C54.6715 17.0369 56.0831 19.5072 56.0831 22.1379V41.0984C56.0831 43.7292 54.6715 46.1995 52.3937 47.5149L35.9997 56.9791C34.8448 57.6207 33.5936 57.9736 32.2782 57.9736ZM32.2782 7.8293C31.4441 7.8293 30.6099 8.05387 29.872 8.47094L13.446 17.9672C11.9381 18.8335 11.0398 20.4376 11.0398 22.1379V41.0984C11.0398 42.8309 11.9702 44.4029 13.446 45.2691L29.84 54.7654C31.3478 55.6316 33.1765 55.6316 34.6843 54.7654L51.0783 45.3012C52.5541 44.435 53.4845 42.863 53.4845 41.1305V22.1379C53.4845 20.4055 52.5541 18.8014 51.0783 17.9672L34.7164 8.47094C33.9785 8.05387 33.1444 7.8293 32.2782 7.8293ZM32.2782 49.3756C31.5724 49.3756 30.8987 49.1831 30.2891 48.8302L18.3546 41.9647C17.1354 41.2588 16.3655 39.9435 16.3655 38.4998V24.7366C16.3655 23.325 17.1034 22.0096 18.3546 21.2717L30.2891 14.4061C31.5403 13.7003 33.0482 13.7003 34.2673 14.4061L46.1697 21.2717C47.3889 21.9775 48.1588 23.2929 48.1588 24.7366V38.4998C48.1588 39.9114 47.3889 41.2588 46.1697 41.9647L34.2352 48.8302C33.6577 49.1831 32.984 49.3756 32.2782 49.3756ZM32.2782 15.7857C31.9253 15.7857 31.5724 15.8819 31.2516 16.0744L19.317 22.94C18.6754 23.325 18.2904 23.9987 18.2904 24.7366V38.4998C18.2904 39.2377 18.6754 39.9114 19.317 40.2964L31.2516 47.162C31.8932 47.5469 32.6632 47.5469 33.3048 47.162L45.2073 40.2964C45.8489 39.9114 46.2339 39.2377 46.2339 38.4998V24.7366C46.2339 23.9987 45.8489 23.325 45.2073 22.94L33.3048 16.0744C33.0161 15.8819 32.6632 15.7857 32.2782 15.7857ZM32.2782 40.6493C31.9253 40.6493 31.5724 40.553 31.2516 40.3926L25.2201 36.8636C24.5785 36.5107 24.1935 35.8049 24.1935 35.0991V28.1052C24.1935 27.3673 24.5785 26.6936 25.2201 26.3407L31.2516 22.8437C31.8932 22.4908 32.6632 22.4908 33.3048 22.8437L39.3363 26.3407C39.9779 26.6936 40.3629 27.3673 40.3629 28.1052V35.0991C40.3629 35.837 39.9779 36.5107 39.3363 36.8636L33.3048 40.3605C32.984 40.553 32.6311 40.6493 32.2782 40.6493ZM32.2782 23.8703C32.1499 23.8703 32.0215 23.9024 31.8932 23.9666L25.8618 27.4635C25.6372 27.5919 25.4768 27.8485 25.4768 28.1052V35.0991C25.4768 35.3557 25.6372 35.6124 25.8618 35.7728L31.8932 39.2698C32.1178 39.3981 32.4065 39.3981 32.6632 39.2698L38.6946 35.7728C38.9192 35.6445 39.0796 35.3557 39.0796 35.0991V28.1052C39.0796 27.8485 38.9192 27.5919 38.6946 27.4635L32.6632 23.9666C32.5348 23.9024 32.4065 23.8703 32.2782 23.8703Z" fill="url(#paint0_linear_120_159979)"/>
<defs>
<linearGradient id="paint0_linear_120_159979" x1="8.47327" y1="31.6111" x2="56.0959" y2="31.6111" gradientUnits="userSpaceOnUse">
<stop stop-color="#E168FD"/>
<stop offset="1" stop-color="#7B00FC"/>
</linearGradient>
</defs>
</svg>
