<svg width="48" height="48" viewBox="0 0 48 48" fill="none" xmlns="http://www.w3.org/2000/svg">
<path d="M31.2 25.8V40.2" stroke="#55FE66" stroke-width="3.6" stroke-linecap="round" stroke-linejoin="round"/>
<path d="M16.8 25.8V40.2" stroke="#55FE66" stroke-width="3.6" stroke-linecap="round" stroke-linejoin="round"/>
<path d="M24 29.3999V43.7999" stroke="#55FE66" stroke-width="3.6" stroke-linecap="round" stroke-linejoin="round"/>
<path d="M38.4001 32.2442C40.2923 31.4154 41.8419 29.961 42.7886 28.1249C43.7354 26.2889 44.0217 24.1831 43.5995 22.1609C43.1774 20.1387 42.0724 18.3234 40.4701 17.0195C38.8679 15.7156 36.8658 15.0026 34.8001 15.0002H32.5321C31.9615 12.7907 30.874 10.7485 29.3592 9.04181C27.8444 7.33514 25.9457 6.01291 23.8196 5.18409C21.6935 4.35527 19.4009 4.0436 17.1307 4.27477C14.8605 4.50593 12.6777 5.27332 10.7623 6.51368C8.8469 7.75403 7.25369 9.43184 6.11401 11.4088C4.97432 13.3858 4.32079 15.6053 4.20728 17.8844C4.09377 20.1635 4.52354 22.437 5.46115 24.5174C6.39876 26.5978 7.81737 28.4256 9.60006 29.8502" stroke="#55FE66" stroke-width="3.6" stroke-linecap="round" stroke-linejoin="round"/>
</svg>
